<?xml version="1.0" encoding="utf-8"?>
<!-- Generator: Adobe Illustrator 18.1.1, SVG Export Plug-In . SVG Version: 6.00 Build 0)  -->
<svg version="1.1" id="Layer_1" xmlns="http://www.w3.org/2000/svg" xmlns:xlink="http://www.w3.org/1999/xlink" x="0px" y="0px"
	 viewBox="0 175.4 499.9 149.1" enable-background="new 0 175.4 499.9 149.1" xml:space="preserve">
<g>
	<path fill="#F24A33" d="M95.9,280.5c8.5,0,15.7-7,15.7-19.3c0-11.8-6.3-19.6-15.5-19.6c-8.2,0-15.7,6-15.7,19.7
		C80.4,271,85.7,280.5,95.9,280.5z M84.1,233.5c3.3-2.8,8.2-5.2,15.5-5.2c16.9,0,27.6,13.3,27.6,32.6c0,19.9-12.1,32.6-28.5,32.6
		c-6.3,0-10.6-2.1-13.6-4.3c-1.6-1.3-3.1-2.8-4.3-4.3l0,0c-0.1,0-0.1,0.3-0.1,0.7c0,0.4,0.1,1.3,0.1,2.2c0,0,0,0.9,0,2.4v13.3
		c0,0.7,0.6,1.5,1.5,1.5h6.1c0.7,0,1.5,0.6,1.5,1.5v8.7c0,0.7-0.6,1.5-1.5,1.5H57.8c-0.7,0-1.5-0.6-1.5-1.5v-8.7
		c0-0.7,0.6-1.5,1.5-1.5h6.1c0.7,0,1.5-0.6,1.5-1.5v-58c0-0.7-0.1-2.1-0.4-2.8c0,0-0.4-1.3-2.2-1.3h-5.5c-0.7,0-1.5-0.6-1.5-1.5
		v-8.7c0-0.7,0.6-1.5,1.5-1.5h13.1h1.5c5.7,0,7.8,2.5,7.8,5.8v0.3v1.9c0,0.3,0,0.6-0.1,0.9h0.3C80.7,236.8,82.3,235.1,84.1,233.5z"
		/>
	<path fill="#F24A33" d="M25.2,293.5C14,293.5,0,288.6,0,278.6v-1.5v-4.3c0-0.7,0.6-1.5,1.5-1.5h10.3c0.7,0,1.5,0.6,1.5,1.5v0.7v1.5
		c0,4.3,5.7,6.4,12.2,6.4c6.3,0,10.6-2.1,10.6-6.4c0-5.1-5.8-6.7-14.2-9.7c-9.1-3.1-19.7-7.2-19.7-19.1c0-13.1,13.3-17.8,24.5-17.8
		c9.1,0,22.6,3.6,22.6,13v6.4c0,0.7-0.6,1.5-1.5,1.5H37.3c-0.7,0-1.5-0.6-1.5-1.5v-0.7c0-0.7-0.4-1.9-0.9-2.7c0,0-2.8-3.9-8.4-3.9
		c-4.9,0-9.1,1.6-9.1,5.7c0,5.1,6.1,7.3,13.1,9.3c9.6,2.8,20.8,7,20.8,19.1C51.5,287.3,39.6,293.5,25.2,293.5z"/>
	<path fill="#F24A33" d="M167.8,280.4c10.2,0,18.5-7.8,18.5-19.4c0-11.5-8.4-19.4-18.5-19.4s-18.5,7.9-18.5,19.4
		C149.2,272.5,157.6,280.4,167.8,280.4z M167.6,228.3c19.1,0,34.4,13.6,34.4,32.6c0,19.1-15.2,32.6-34.2,32.6
		c-19.1,0-34.4-13.4-34.4-32.6C133.4,241.9,148.6,228.3,167.6,228.3z"/>
	<path fill="#F24A33" d="M253.5,228.3c13.3,0,20.9,7,20.9,23.8v27c0,0.7,0.6,1.5,1.5,1.5h6.1c0.7,0,1.5,0.6,1.5,1.5v8.7
		c0,0.7-0.6,1.5-1.5,1.5h-21.5c-0.7,0-1.5-0.6-1.5-1.5v-34.1c0-0.7-0.1-2.1-0.3-2.8c0,0-1.8-11.4-9.7-11.4
		c-11.2,0-17.8,10.8-17.8,21.7v14.9c0,0.7,0.6,1.5,1.5,1.5h6c0.7,0,1.5,0.6,1.5,1.5v8.7c0,0.7-0.6,1.5-1.5,1.5h-30.6
		c-0.7,0-1.5-0.6-1.5-1.5V282c0-0.7,0.6-1.5,1.5-1.5h6.1c0.7,0,1.5-0.6,1.5-1.5v-33.6c0-0.7-0.1-2.1-0.4-2.8c0,0-0.4-1.3-2.2-1.3
		h-5.4c-0.7,0-1.5-0.6-1.5-1.5v-8.7c0-0.7,0.6-1.5,1.5-1.5h13.4h1.5c5.5,0,8.1,2.5,8.1,7v2.8c0,0.6,0,1.3-0.1,1.8
		c-0.1,0.3-0.1,0.6-0.1,0.9h0.3C231.3,240.2,238,228.3,253.5,228.3z"/>
	<path fill="#F24A33" d="M393.8,254c0.7,0,0.9,0,0.9-1v-0.3c-0.7-7.9-5.7-12.4-12-12.4c-12.4,0-14.8,12.5-14.8,12.5
		c-0.1,1,0,1,0.9,1h24.9V254z M402.7,274.9c0.7-0.4,1.6-0.4,2.1,0.3v0.1l4.5,8.2c0.4,0.7,0.1,1.6-0.4,2.1c0,0-3,2.1-5.5,3.4
		c-4.3,2.4-10.6,4.3-18.5,4.3c-20.6,0-33.5-15.1-33.5-32.6c0-19.1,13-32.6,31.7-32.6c17.9,0,27.8,13.1,27.8,29.6
		c0,0.9,0,2.2-0.1,3.3v0.4c-0.1,0.7-0.9,1.5-1.6,1.5h-40.8c-0.7,0-0.9,0.1-0.7,1.2v0.1c1.5,10.5,9.6,16,18.5,16
		c5.2,0,9.6-1.5,12.8-3.3c1.2-0.6,2.4-1.3,3.4-2.1L402.7,274.9z"/>
	<path fill="#F24A33" d="M303.4,249.9c0,7.8,4,11.7,12.1,11.7s12.1-3.9,12.1-11.8c0-8.1-4-12-12.1-12
		C307.4,237.8,303.4,241.9,303.4,249.9z M287.1,299.1c0.3-0.7,0.6-1.2,1.9-1.2h0.1h11.4c0.7,0,1.2,0.6,0.9,1.3c0,0-0.1,0.1-0.4,1
		c-0.3,0.9-0.4,1.6-0.4,2.7c0,3.3,1.3,5.7,4,7.5c2.7,1.8,6.4,2.7,11.4,2.7c5.2,0,9.4-1,12.2-3c3-1.9,4.3-4.6,4.3-7.9
		c0-3.6-1.5-6.1-4.6-7.6c-3.1-1.5-8.1-2.1-14.8-2.1c-9.1,0-15.2-0.9-18.4-2.5c-3.1-1.6-4.8-4.3-4.8-8.2c0-3.3,1-5.7,3.3-7.5
		c2.2-1.6,5.5-3.3,10-4.6c-10.6-3-16-9.7-16-19.7c0-7.2,2.5-12.8,7.6-17.2c5.1-4.3,12-6.6,20.5-6.6c3.3,0,7,0.4,11.2,1.5
		c0,0,0.1-0.1,0.1-0.3c0,0,0,0-0.1-0.3c-0.1-0.3-0.1-0.7-0.1-1.5c0-3.3,2.2-5.8,7-5.8h14c0.7,0,1.5,0.6,1.5,1.5v8.7
		c0,0.7-0.6,1.5-1.5,1.5h-4.6c-0.7,0-2.1,0.1-2.8,0.4c0,0-1.3,0.4-1.3,1.9c0,0.9,0,2.4,0,3.6l0.1,0.7c1,1.3,2.1,2.8,3,4.9
		c1,1.9,1.5,4.5,1.5,7.5c0,6.1-2.4,11.4-7.3,15.4c-4.8,4-11.4,6.1-19.4,6.1c-2.5,0.9-4.6,1.9-6.6,3.3c-1.9,1.2-2.8,2.4-2.8,3.4
		c0,1.3,0.9,2.1,2.8,2.4c1.9,0.3,6.7,0.4,14.6,0.4c6.3,0,11.8,1.6,16.4,4.9s6.9,8.4,6.9,14.9c0,7.3-2.8,13-8.5,17
		c-5.7,4-13.3,6-22.7,6c-9.6,0-17.2-1.6-22.9-4.8c-5.7-3.1-8.5-7.9-8.5-14.3c0-1.3,0.1-2.7,0.4-4C286.7,300.7,286.8,300,287.1,299.1
		L287.1,299.1z"/>
	<path fill="#F24A33" d="M411.3,196.3c8.8-14.5,27.8-19.3,42.1-20.8c20.3-2.1,32.6,15.5,36.9,36.2c3,14-20.3,22.4-43.2,22.4
		c-20.8,0-41.1-7-40.8-23.2C406.3,206.8,407.2,203,411.3,196.3z M451.4,219.2c0,0.3,0.3,0.6,0.7,0.6h11.5c0.3,0,0.6-0.3,0.6-0.6
		v-3.4c0-0.3-0.3-0.7-0.6-0.7h-1.3c-0.3,0-0.6-0.3-0.6-0.6v-5.1c0-0.3,0.3-0.6,0.6-0.6h0.9c0.9,0,1.6,0.6,1.6,0.6
		c0.3,0.1,0.7,0.6,0.9,1l4.3,7.5c1,1.8,3.3,2.1,3.3,2.1c0.3,0,1,0.1,1.3,0.1h3.4c0.3,0,0.6-0.3,0.6-0.6v-3.7c0-0.3-0.3-0.7-0.6-0.7
		h-0.7c-1.2,0-1.6-0.4-1.6-0.4c-0.3-0.3-0.6-0.7-0.7-1l-3.3-5.7c-1-1.8-1.3-1.9-1.3-1.9c-0.3-0.1-0.6-0.3-0.6-0.3s0.1-0.3,0.4-0.6
		l4.6-5.5c0.3-0.3,0.7-0.4,1-0.4h1.9c0.4,0,0.7-0.3,0.7-0.6V195c0-0.3-0.3-0.6-0.7-0.6H467c-0.3,0-0.6,0.3-0.6,0.6v3.4
		c0,0.3,0.3,0.6,0.6,0.6h1.6c0.3,0,0.4,0.3,0.3,0.4l-3.3,3.9c-0.3,0.3-0.7,0.4-1,0.4h-1.9c-0.3,0-0.6-0.3-0.6-0.6v-8.4
		c0-0.3-0.3-0.6-0.7-0.6h-9c-0.3,0-0.6,0.3-0.6,0.6v3.4c0,0.3,0.3,0.6,0.6,0.6h2.5c0.3,0,0.7,0.3,0.7,0.7v14.6
		c0,0.3-0.3,0.6-0.7,0.6h-2.4c-0.3,0-0.7,0.3-0.7,0.7v3.6H451.4z M441.7,219.7h5.7c0.4,0,0.7-0.3,0.7-0.6v-3.4
		c0-0.3-0.3-0.6-0.7-0.6h-1.8c-0.7,0-0.9-0.4-0.9-0.4c-0.1-0.3-0.1-0.9-0.1-1.3V195c0-0.3-0.3-0.6-0.6-0.6h-9
		c-0.3,0-0.7,0.3-0.7,0.6v3.4c0,0.3,0.3,0.6,0.7,0.6h2.5c0.3,0,0.6,0.3,0.6,0.7v6c0,4.6-2.7,9.1-7,9.1c-3.1,0-3.9-4.5-3.9-4.5
		c0-0.3-0.1-0.9-0.1-1.3v-13.9c0-0.3-0.3-0.6-0.6-0.6h-9c-0.4,0-0.6,0.3-0.6,0.6v3.4c0,0.3,0.3,0.6,0.6,0.6h2.5
		c0.3,0,0.6,0.3,0.6,0.7v10.9c0,6.9,3.3,9.7,8.4,9.7c6.3,0,9-4.9,9-4.9c0.1-0.3,0.3-0.6,0.3-0.6s0,0.1,0,0.3l0,0c0,0.1,0,0.1,0,0.1
		c0,0.3,0,0.9,0,1.3v0.3C438.5,218.7,439.5,219.7,441.7,219.7z"/>
	<text transform="matrix(1 0 0 1 489.2874 194.4391)" fill="#F24A33" font-family="'MuseoSlab-500'" font-size="13.2922">®</text>
</g>
</svg>
