<?xml version="1.0" encoding="utf-8"?>
<!-- Generator: Adobe Illustrator 18.1.1, SVG Export Plug-In . SVG Version: 6.00 Build 0)  -->
<svg version="1.1" id="Layer_1" xmlns="http://www.w3.org/2000/svg" xmlns:xlink="http://www.w3.org/1999/xlink" x="0px" y="0px"
	 viewBox="0 0 334.7 99.9" enable-background="new 0 0 334.7 99.9" xml:space="preserve">
<g>
	<path fill="#FFFFFF" d="M64.2,70.4c5.7,0,10.5-4.7,10.5-12.9c0-7.9-4.2-13.1-10.4-13.1c-5.5,0-10.5,4-10.5,13.2
		C53.8,64,57.4,70.4,64.2,70.4z M56.3,38.9c2.2-1.9,5.5-3.5,10.4-3.5c11.3,0,18.5,8.9,18.5,21.8c0,13.3-8.1,21.8-19.1,21.8
		c-4.2,0-7.1-1.4-9.1-2.9c-1.1-0.9-2.1-1.9-2.9-2.9l0,0c-0.1,0-0.1,0.2-0.1,0.5c0,0.3,0.1,0.9,0.1,1.5c0,0,0,0.6,0,1.6v8.9
		c0,0.5,0.4,1,1,1h4.1c0.5,0,1,0.4,1,1v5.8c0,0.5-0.4,1-1,1H38.7c-0.5,0-1-0.4-1-1v-5.8c0-0.5,0.4-1,1-1h4.1c0.5,0,1-0.4,1-1V46.9
		c0-0.5-0.1-1.4-0.3-1.9c0,0-0.3-0.9-1.5-0.9h-3.7c-0.5,0-1-0.4-1-1v-5.8c0-0.5,0.4-1,1-1h8.8h1c3.8,0,5.2,1.7,5.2,3.9v0.2v1.3
		c0,0.2,0,0.4-0.1,0.6h0.2C54,41.1,55.1,40,56.3,38.9z"/>
	<path fill="#FFFFFF" d="M16.9,79.1C9.4,79.1,0,75.8,0,69.1v-1v-2.9c0-0.5,0.4-1,1-1h6.9c0.5,0,1,0.4,1,1v0.5v1
		c0,2.9,3.8,4.3,8.2,4.3c4.2,0,7.1-1.4,7.1-4.3c0-3.4-3.9-4.5-9.5-6.5C8.6,58.1,1.5,55.4,1.5,47.4c0-8.8,8.9-11.9,16.4-11.9
		c6.1,0,15.1,2.4,15.1,8.7v4.3c0,0.5-0.4,1-1,1h-7c-0.5,0-1-0.4-1-1V48c0-0.5-0.3-1.3-0.6-1.8c0,0-1.9-2.6-5.6-2.6
		c-3.3,0-6.1,1.1-6.1,3.8c0,3.4,4.1,4.9,8.8,6.2c6.4,1.9,13.9,4.7,13.9,12.8C34.5,74.9,26.5,79.1,16.9,79.1z"/>
	<path fill="#FFFFFF" d="M112.3,70.3c6.8,0,12.4-5.2,12.4-13c0-7.7-5.6-13-12.4-13c-6.8,0-12.4,5.3-12.4,13
		C99.9,65,105.5,70.3,112.3,70.3z M112.2,35.4c12.8,0,23,9.1,23,21.8c0,12.8-10.2,21.8-22.9,21.8c-12.8,0-23-9-23-21.8
		C89.3,44.5,99.5,35.4,112.2,35.4z"/>
	<path fill="#FFFFFF" d="M169.7,35.4c8.9,0,14,4.7,14,15.9v18.1c0,0.5,0.4,1,1,1h4.1c0.5,0,1,0.4,1,1v5.8c0,0.5-0.4,1-1,1h-14.4
		c-0.5,0-1-0.4-1-1V54.4c0-0.5-0.1-1.4-0.2-1.9c0,0-1.2-7.6-6.5-7.6c-7.5,0-11.9,7.2-11.9,14.5v10c0,0.5,0.4,1,1,1h4
		c0.5,0,1,0.4,1,1v5.8c0,0.5-0.4,1-1,1h-20.5c-0.5,0-1-0.4-1-1v-5.8c0-0.5,0.4-1,1-1h4.1c0.5,0,1-0.4,1-1V46.9
		c0-0.5-0.1-1.4-0.3-1.9c0,0-0.3-0.9-1.5-0.9H139c-0.5,0-1-0.4-1-1v-5.8c0-0.5,0.4-1,1-1h9h1c3.7,0,5.4,1.7,5.4,4.7v1.9
		c0,0.4,0,0.9-0.1,1.2c-0.1,0.2-0.1,0.4-0.1,0.6h0.2C154.8,43.4,159.3,35.4,169.7,35.4z"/>
	<path fill="#FFFFFF" d="M263.6,52.6c0.5,0,0.6,0,0.6-0.7l0-0.2c-0.5-5.3-3.8-8.3-8-8.3c-8.3,0-9.9,8.4-9.9,8.4
		c-0.1,0.7,0,0.7,0.6,0.7H263.6z M269.6,66.6c0.5-0.3,1.1-0.3,1.4,0.2l0,0.1l3,5.5c0.3,0.5,0.1,1.1-0.3,1.4c0,0-2,1.4-3.7,2.3
		c-2.9,1.6-7.1,2.9-12.4,2.9c-13.8,0-22.4-10.1-22.4-21.8c0-12.8,8.7-21.8,21.2-21.8c12,0,18.6,8.8,18.6,19.8c0,0.6,0,1.5-0.1,2.2
		l0,0.3c-0.1,0.5-0.6,1-1.1,1h-27.3c-0.5,0-0.6,0.1-0.5,0.8l0,0.1c1,7,6.4,10.7,12.4,10.7c3.5,0,6.4-1,8.6-2.2
		c0.8-0.4,1.6-0.9,2.3-1.4L269.6,66.6z"/>
	<path fill="#FFFFFF" d="M203.1,49.9c0,5.2,2.7,7.8,8.1,7.8c5.4,0,8.1-2.6,8.1-7.9c0-5.4-2.7-8-8.1-8
		C205.8,41.8,203.1,44.5,203.1,49.9z M192.2,82.8c0.2-0.5,0.4-0.8,1.3-0.8l0.1,0h7.6c0.5,0,0.8,0.4,0.6,0.9c0,0-0.1,0.1-0.3,0.7
		c-0.2,0.6-0.3,1.1-0.3,1.8c0,2.2,0.9,3.8,2.7,5c1.8,1.2,4.3,1.8,7.6,1.8c3.5,0,6.3-0.7,8.2-2c2-1.3,2.9-3.1,2.9-5.3
		c0-2.4-1-4.1-3.1-5.1c-2.1-1-5.4-1.4-9.9-1.4c-6.1,0-10.2-0.6-12.3-1.7c-2.1-1.1-3.2-2.9-3.2-5.5c0-2.2,0.7-3.8,2.2-5
		c1.5-1.1,3.7-2.2,6.7-3.1c-7.1-2-10.7-6.5-10.7-13.2c0-4.8,1.7-8.6,5.1-11.5c3.4-2.9,8-4.4,13.7-4.4c2.2,0,4.7,0.3,7.5,1
		c0,0,0.1-0.1,0.1-0.2c0,0,0,0-0.1-0.2c-0.1-0.2-0.1-0.5-0.1-1c0-2.2,1.5-3.9,4.7-3.9h9.4c0.5,0,1,0.4,1,1v5.8c0,0.5-0.4,1-1,1h-3.1
		c-0.5,0-1.4,0.1-1.9,0.3c0,0-0.9,0.3-0.9,1.3c0,0.6,0,1.6,0,2.4l0.1,0.5c0.7,0.9,1.4,1.9,2,3.3c0.7,1.3,1,3,1,5
		c0,4.1-1.6,7.6-4.9,10.3c-3.2,2.7-7.6,4.1-13,4.1c-1.7,0.6-3.1,1.3-4.4,2.2c-1.3,0.8-1.9,1.6-1.9,2.3c0,0.9,0.6,1.4,1.9,1.6
		c1.3,0.2,4.5,0.3,9.8,0.3c4.2,0,7.9,1.1,11,3.3c3.1,2.2,4.6,5.6,4.6,10c0,4.9-1.9,8.7-5.7,11.4c-3.8,2.7-8.9,4-15.2,4
		c-6.4,0-11.5-1.1-15.3-3.2c-3.8-2.1-5.7-5.3-5.7-9.6c0-0.9,0.1-1.8,0.3-2.7C191.9,83.9,192,83.4,192.2,82.8L192.2,82.8z"/>
	<path fill="#FFFFFF" d="M275.3,14c5.9-9.7,18.6-12.9,28.2-13.9c13.6-1.4,21.8,10.4,24.7,24.2c2,9.4-13.6,15-28.9,15
		c-13.9,0-27.5-4.7-27.3-15.5C272,21,272.6,18.5,275.3,14z M302.2,29.3c0,0.2,0.2,0.4,0.5,0.4h7.7c0.2,0,0.4-0.2,0.4-0.4V27
		c0-0.2-0.2-0.5-0.4-0.5h-0.9c-0.2,0-0.4-0.2-0.4-0.4v-3.4c0-0.2,0.2-0.4,0.4-0.4h0.6c0.6,0,1.1,0.4,1.1,0.4
		c0.2,0.1,0.5,0.4,0.6,0.7l2.9,5c0.7,1.2,2.2,1.4,2.2,1.4c0.2,0,0.7,0.1,0.9,0.1h2.3c0.2,0,0.4-0.2,0.4-0.4V27
		c0-0.2-0.2-0.5-0.4-0.5h-0.5c-0.8,0-1.1-0.3-1.1-0.3c-0.2-0.2-0.4-0.5-0.5-0.7l-2.2-3.8c-0.7-1.2-0.9-1.3-0.9-1.3
		c-0.2-0.1-0.4-0.2-0.4-0.2c0,0,0.1-0.2,0.3-0.4l3.1-3.7c0.2-0.2,0.5-0.3,0.7-0.3h1.3c0.3,0,0.5-0.2,0.5-0.4v-2.3
		c0-0.2-0.2-0.4-0.5-0.4h-7.3c-0.2,0-0.4,0.2-0.4,0.4v2.3c0,0.2,0.2,0.4,0.4,0.4h1.1c0.2,0,0.3,0.2,0.2,0.3l-2.2,2.6
		c-0.2,0.2-0.5,0.3-0.7,0.3h-1.3c-0.2,0-0.4-0.2-0.4-0.4v-5.6c0-0.2-0.2-0.4-0.5-0.4h-6c-0.2,0-0.4,0.2-0.4,0.4v2.3
		c0,0.2,0.2,0.4,0.4,0.4h1.7c0.2,0,0.5,0.2,0.5,0.5v9.8c0,0.2-0.2,0.4-0.5,0.4h-1.6c-0.2,0-0.5,0.2-0.5,0.5V29.3z M295.7,29.7h3.8
		c0.3,0,0.5-0.2,0.5-0.4V27c0-0.2-0.2-0.4-0.5-0.4h-1.2c-0.5,0-0.6-0.3-0.6-0.3c-0.1-0.2-0.1-0.6-0.1-0.9V13.1
		c0-0.2-0.2-0.4-0.4-0.4h-6c-0.2,0-0.5,0.2-0.5,0.4v2.3c0,0.2,0.2,0.4,0.5,0.4h1.7c0.2,0,0.4,0.2,0.4,0.5v4c0,3.1-1.8,6.1-4.7,6.1
		c-2.1,0-2.6-3-2.6-3c0-0.2-0.1-0.6-0.1-0.9v-9.3c0-0.2-0.2-0.4-0.4-0.4h-6c-0.3,0-0.4,0.2-0.4,0.4v2.3c0,0.2,0.2,0.4,0.4,0.4h1.7
		c0.2,0,0.4,0.2,0.4,0.5v7.3c0,4.6,2.2,6.5,5.6,6.5c4.2,0,6-3.3,6-3.3c0.1-0.2,0.2-0.4,0.2-0.4c0,0,0,0.1,0,0.2l0,0
		c0,0.1,0,0.1,0,0.1c0,0.2,0,0.6,0,0.9v0.2C293.5,29,294.2,29.7,295.7,29.7z"/>
	<text transform="matrix(1 0 0 1 327.5291 12.7576)" fill="#FFFFFF" font-family="'MuseoSlab-500'" font-size="8.8978">®</text>
</g>
</svg>
