<?xml version="1.0" encoding="utf-8"?>
<!-- Generator: Adobe Illustrator 18.1.1, SVG Export Plug-In . SVG Version: 6.00 Build 0)  -->
<svg version="1.1" id="Layer_1" xmlns="http://www.w3.org/2000/svg" xmlns:xlink="http://www.w3.org/1999/xlink" x="0px" y="0px"
	 viewBox="0 0 960 960" enable-background="new 0 0 960 960" xml:space="preserve">
<g>
	<g>
		<rect x="0" fill="#FEBD19" width="137.1" height="137.1"/>
		<rect x="137.1" fill="#7E7772" width="137.1" height="137.1"/>
		<rect x="274.3" fill="#F34939" width="137.1" height="137.1"/>
		<rect x="411.4" fill="#71C8B5" width="137.1" height="137.1"/>
		<rect x="548.6" fill="#F34939" width="137.1" height="137.1"/>
		<rect x="685.7" fill="#E6E6E6" width="137.1" height="137.1"/>
		<rect x="822.9" fill="#7E7772" width="137.1" height="137.1"/>
		<rect x="0" y="137.1" fill="#F34939" width="137.1" height="137.1"/>
		<rect x="137.1" y="137.1" fill="#FEBD19" width="137.1" height="137.1"/>
		<rect x="274.3" y="137.1" fill="#E6E6E6" width="137.1" height="137.1"/>
		<rect x="411.4" y="137.1" fill="#F34939" width="137.1" height="137.1"/>
		<rect x="548.6" y="137.1" fill="#FEBD19" width="137.1" height="137.1"/>
		<rect x="685.7" y="137.1" fill="#8BCEDC" width="137.1" height="137.1"/>
		<rect x="822.9" y="137.1" fill="#F34939" width="137.1" height="137.1"/>
		<rect x="0" y="274.3" fill="#FEBD19" width="137.1" height="137.1"/>
		<rect x="137.1" y="274.3" fill="#E6E6E6" width="137.1" height="137.1"/>
		<rect x="274.3" y="274.3" fill="#71C8B5" width="137.1" height="137.1"/>
		<rect x="411.4" y="274.3" fill="#FEBD19" width="137.1" height="137.1"/>
		<rect x="548.6" y="274.3" fill="#7E7772" width="137.1" height="137.1"/>
		<rect x="685.7" y="274.3" fill="#E6E6E6" width="137.1" height="137.1"/>
		<rect x="822.9" y="274.3" fill="#71C8B5" width="137.1" height="137.1"/>
		<rect x="0" y="411.4" fill="#71C8B5" width="137.1" height="137.1"/>
		<rect x="137.1" y="411.4" fill="#7E7772" width="137.1" height="137.1"/>
		<rect x="274.3" y="411.4" fill="#F34939" width="137.1" height="137.1"/>
		<rect x="411.4" y="411.4" fill="#8BCEDC" width="137.1" height="137.1"/>
		<rect x="548.6" y="411.4" fill="#71C8B5" width="137.1" height="137.1"/>
		<rect x="685.7" y="411.4" fill="#F34939" width="137.1" height="137.1"/>
		<rect x="822.9" y="411.4" fill="#E6E6E6" width="137.1" height="137.1"/>
		<rect x="0" y="548.6" fill="#F34939" width="137.1" height="137.1"/>
		<rect x="137.1" y="548.6" fill="#FEBD19" width="137.1" height="137.1"/>
		<rect x="274.3" y="548.6" fill="#8BCEDC" width="137.1" height="137.1"/>
		<rect x="411.4" y="548.6" fill="#7E7772" width="137.1" height="137.1"/>
		<rect x="548.6" y="548.6" fill="#E6E6E6" width="137.1" height="137.1"/>
		<rect x="685.7" y="548.6" fill="#FEBD19" width="137.1" height="137.1"/>
		<rect x="822.9" y="548.6" fill="#F34939" width="137.1" height="137.1"/>
		<rect x="0" y="685.7" fill="#8BCEDC" width="137.1" height="137.1"/>
		<rect x="137.1" y="685.7" fill="#F34939" width="137.1" height="137.1"/>
		<rect x="274.3" y="685.7" fill="#FEBD19" width="137.1" height="137.1"/>
		<rect x="411.4" y="685.7" fill="#71C8B5" width="137.1" height="137.1"/>
		<rect x="548.6" y="685.7" fill="#F34939" width="137.1" height="137.1"/>
		<rect x="685.7" y="685.7" fill="#7E7772" width="137.1" height="137.1"/>
		<rect x="822.9" y="685.7" fill="#FEBD19" width="137.1" height="137.1"/>
		<rect x="0" y="822.9" fill="#E6E6E6" width="137.1" height="137.1"/>
		<rect x="137.1" y="822.9" fill="#7E7772" width="137.1" height="137.1"/>
		<rect x="274.3" y="822.9" fill="#F34939" width="137.1" height="137.1"/>
		<rect x="411.4" y="822.9" fill="#8BCEDC" width="137.1" height="137.1"/>
		<rect x="548.6" y="822.9" fill="#FEBD19" width="137.1" height="137.1"/>
		<rect x="685.7" y="822.9" fill="#F34939" width="137.1" height="137.1"/>
		<rect x="822.9" y="822.9" fill="#7E7772" width="137.1" height="137.1"/>
	</g>
	<g opacity="4.000000e-002">
		<image overflow="visible" width="1032" height="1032" xlink:href="4C846DB4.png"  transform="matrix(1 0 0 1 -36 -36)">
		</image>
	</g>
</g>
</svg>
